<svg xmlns="http://www.w3.org/2000/svg" xmlns:xlink="http://www.w3.org/1999/xlink" viewBox="0 0 70.614 70.614" fill="#fff" fill-rule="evenodd" stroke="#000" stroke-linecap="round" stroke-linejoin="round"><use xlink:href="#A" x="3.307" y="3.307"/><symbol id="A" overflow="visible"><g stroke="none" fill-rule="nonzero"><path d="M17.182 0h46.758l-.02 46.15c-.02 8.823-7.361 16.27-15.886 17.553H0V16.666C.886 7.791 8.598 1.144 17.182 0z" fill="#db2331"/><path d="M10.185 18.664c2.077-5.026 8.598-3.042 12.923-3.492 5.192-.549 9.94 1.799 13.889 5.013l1.085-5.952c2.163 2.282 3.882 5 6.376 6.958 1.852 1.68 4.332-2.262 5.688-.086 2.778 5.714 2.698 12.301 3.571 18.485l-5.212-2.467c-2.87-9.689-14.603-17.083-24.325-12.897-8.558 3.915-7.645 17.526.397 21.527 8.955 4.649 19.53 3.307 29.133 1.931-.463 2.778-2.249 5.754-5.516 5.397l-32.737.013c-3.307.364-5.86-2.731-5.542-5.952l.264-28.538z"/></g></symbol></svg>